<?xml version="1.0" encoding="utf-8" standalone="no"?>
<!DOCTYPE svg PUBLIC "-//W3C//DTD SVG 1.1//EN"
  "http://www.w3.org/Graphics/SVG/1.1/DTD/svg11.dtd">
<svg xmlns:xlink="http://www.w3.org/1999/xlink" width="388.992813pt" height="280.5725pt" viewBox="0 0 388.992813 280.5725" xmlns="http://www.w3.org/2000/svg" version="1.1">
 <metadata>
  <rdf:RDF xmlns:dc="http://purl.org/dc/elements/1.1/" xmlns:cc="http://creativecommons.org/ns#" xmlns:rdf="http://www.w3.org/1999/02/22-rdf-syntax-ns#">
   <cc:Work>
    <dc:type rdf:resource="http://purl.org/dc/dcmitype/StillImage"/>
    <dc:date>2025-06-20T12:48:59.228749</dc:date>
    <dc:format>image/svg+xml</dc:format>
    <dc:creator>
     <cc:Agent>
      <dc:title>Matplotlib v3.9.0, https://matplotlib.org/</dc:title>
     </cc:Agent>
    </dc:creator>
   </cc:Work>
  </rdf:RDF>
 </metadata>
 <defs>
  <style type="text/css">*{stroke-linejoin: round; stroke-linecap: butt}</style>
 </defs>
 <g id="figure_1">
  <g id="patch_1">
   <path d="M 0 280.5725 
L 388.992813 280.5725 
L 388.992813 0 
L 0 0 
L 0 280.5725 
z
" style="fill: none"/>
  </g>
  <g id="axes_1">
   <g id="patch_2">
    <path d="M 48.702813 118.47 
L 381.792813 118.47 
L 381.792813 7.2 
L 48.702813 7.2 
L 48.702813 118.47 
z
" style="fill: none"/>
   </g>
   <g id="matplotlib.axis_1">
    <g id="xtick_1">
     <g id="line2d_1">
      <path d="M 48.702812 118.47 
L 48.702812 7.2 
" clip-path="url(#p0f54367511)" style="fill: none; stroke: #b0b0b0; stroke-opacity: 0.3; stroke-width: 0.8; stroke-linecap: square"/>
     </g>
     <g id="line2d_2">
      <defs>
       <path id="mde9f56fee8" d="M 0 0 
L 0 -3.5 
" style="stroke: #000000; stroke-width: 0.8"/>
      </defs>
      <g>
       <use xlink:href="#mde9f56fee8" x="48.702812" y="118.47" style="stroke: #000000; stroke-width: 0.8"/>
      </g>
     </g>
    </g>
    <g id="xtick_2">
     <g id="line2d_3">
      <path d="M 128.009955 118.47 
L 128.009955 7.2 
" clip-path="url(#p0f54367511)" style="fill: none; stroke: #b0b0b0; stroke-opacity: 0.3; stroke-width: 0.8; stroke-linecap: square"/>
     </g>
     <g id="line2d_4">
      <g>
       <use xlink:href="#mde9f56fee8" x="128.009955" y="118.47" style="stroke: #000000; stroke-width: 0.8"/>
      </g>
     </g>
    </g>
    <g id="xtick_3">
     <g id="line2d_5">
      <path d="M 207.317098 118.47 
L 207.317098 7.2 
" clip-path="url(#p0f54367511)" style="fill: none; stroke: #b0b0b0; stroke-opacity: 0.3; stroke-width: 0.8; stroke-linecap: square"/>
     </g>
     <g id="line2d_6">
      <g>
       <use xlink:href="#mde9f56fee8" x="207.317098" y="118.47" style="stroke: #000000; stroke-width: 0.8"/>
      </g>
     </g>
    </g>
    <g id="xtick_4">
     <g id="line2d_7">
      <path d="M 286.624241 118.47 
L 286.624241 7.2 
" clip-path="url(#p0f54367511)" style="fill: none; stroke: #b0b0b0; stroke-opacity: 0.3; stroke-width: 0.8; stroke-linecap: square"/>
     </g>
     <g id="line2d_8">
      <g>
       <use xlink:href="#mde9f56fee8" x="286.624241" y="118.47" style="stroke: #000000; stroke-width: 0.8"/>
      </g>
     </g>
    </g>
    <g id="xtick_5">
     <g id="line2d_9">
      <path d="M 365.931384 118.47 
L 365.931384 7.2 
" clip-path="url(#p0f54367511)" style="fill: none; stroke: #b0b0b0; stroke-opacity: 0.3; stroke-width: 0.8; stroke-linecap: square"/>
     </g>
     <g id="line2d_10">
      <g>
       <use xlink:href="#mde9f56fee8" x="365.931384" y="118.47" style="stroke: #000000; stroke-width: 0.8"/>
      </g>
     </g>
    </g>
   </g>
   <g id="matplotlib.axis_2">
    <g id="ytick_1">
     <g id="line2d_11">
      <path d="M 48.702813 92.709696 
L 381.792813 92.709696 
" clip-path="url(#p0f54367511)" style="fill: none; stroke: #b0b0b0; stroke-opacity: 0.3; stroke-width: 0.8; stroke-linecap: square"/>
     </g>
     <g id="line2d_12">
      <defs>
       <path id="md125793812" d="M 0 0 
L 3.5 0 
" style="stroke: #000000; stroke-width: 0.8"/>
      </defs>
      <g>
       <use xlink:href="#md125793812" x="48.702813" y="92.709696" style="stroke: #000000; stroke-width: 0.8"/>
      </g>
     </g>
     <g id="text_1">
      <!-- 2 -->
      <g transform="translate(38.245 96.508915) scale(0.1 -0.1)">
       <defs>
        <path id="DejaVuSans-Bold-32" d="M 1844 884 
L 3897 884 
L 3897 0 
L 506 0 
L 506 884 
L 2209 2388 
Q 2438 2594 2547 2791 
Q 2656 2988 2656 3200 
Q 2656 3528 2436 3728 
Q 2216 3928 1850 3928 
Q 1569 3928 1234 3808 
Q 900 3688 519 3450 
L 519 4475 
Q 925 4609 1322 4679 
Q 1719 4750 2100 4750 
Q 2938 4750 3402 4381 
Q 3866 4013 3866 3353 
Q 3866 2972 3669 2642 
Q 3472 2313 2841 1759 
L 1844 884 
z
" transform="scale(0.015625)"/>
       </defs>
       <use xlink:href="#DejaVuSans-Bold-32"/>
      </g>
     </g>
    </g>
    <g id="ytick_2">
     <g id="line2d_13">
      <path d="M 48.702813 66.922011 
L 381.792813 66.922011 
" clip-path="url(#p0f54367511)" style="fill: none; stroke: #b0b0b0; stroke-opacity: 0.3; stroke-width: 0.8; stroke-linecap: square"/>
     </g>
     <g id="line2d_14">
      <g>
       <use xlink:href="#md125793812" x="48.702813" y="66.922011" style="stroke: #000000; stroke-width: 0.8"/>
      </g>
     </g>
     <g id="text_2">
      <!-- 4 -->
      <g transform="translate(38.245 70.721229) scale(0.1 -0.1)">
       <defs>
        <path id="DejaVuSans-Bold-34" d="M 2356 3675 
L 1038 1722 
L 2356 1722 
L 2356 3675 
z
M 2156 4666 
L 3494 4666 
L 3494 1722 
L 4159 1722 
L 4159 850 
L 3494 850 
L 3494 0 
L 2356 0 
L 2356 850 
L 288 850 
L 288 1881 
L 2156 4666 
z
" transform="scale(0.015625)"/>
       </defs>
       <use xlink:href="#DejaVuSans-Bold-34"/>
      </g>
     </g>
    </g>
    <g id="ytick_3">
     <g id="line2d_15">
      <path d="M 48.702813 41.134325 
L 381.792813 41.134325 
" clip-path="url(#p0f54367511)" style="fill: none; stroke: #b0b0b0; stroke-opacity: 0.3; stroke-width: 0.8; stroke-linecap: square"/>
     </g>
     <g id="line2d_16">
      <g>
       <use xlink:href="#md125793812" x="48.702813" y="41.134325" style="stroke: #000000; stroke-width: 0.8"/>
      </g>
     </g>
     <g id="text_3">
      <!-- 6 -->
      <g transform="translate(38.245 44.933544) scale(0.1 -0.1)">
       <defs>
        <path id="DejaVuSans-Bold-36" d="M 2316 2303 
Q 2000 2303 1842 2098 
Q 1684 1894 1684 1484 
Q 1684 1075 1842 870 
Q 2000 666 2316 666 
Q 2634 666 2792 870 
Q 2950 1075 2950 1484 
Q 2950 1894 2792 2098 
Q 2634 2303 2316 2303 
z
M 3803 4544 
L 3803 3681 
Q 3506 3822 3243 3889 
Q 2981 3956 2731 3956 
Q 2194 3956 1894 3657 
Q 1594 3359 1544 2772 
Q 1750 2925 1990 3001 
Q 2231 3078 2516 3078 
Q 3231 3078 3670 2659 
Q 4109 2241 4109 1563 
Q 4109 813 3618 361 
Q 3128 -91 2303 -91 
Q 1394 -91 895 523 
Q 397 1138 397 2266 
Q 397 3422 980 4083 
Q 1563 4744 2578 4744 
Q 2900 4744 3203 4694 
Q 3506 4644 3803 4544 
z
" transform="scale(0.015625)"/>
       </defs>
       <use xlink:href="#DejaVuSans-Bold-36"/>
      </g>
     </g>
    </g>
    <g id="ytick_4">
     <g id="line2d_17">
      <path d="M 48.702813 15.346639 
L 381.792813 15.346639 
" clip-path="url(#p0f54367511)" style="fill: none; stroke: #b0b0b0; stroke-opacity: 0.3; stroke-width: 0.8; stroke-linecap: square"/>
     </g>
     <g id="line2d_18">
      <g>
       <use xlink:href="#md125793812" x="48.702813" y="15.346639" style="stroke: #000000; stroke-width: 0.8"/>
      </g>
     </g>
     <g id="text_4">
      <!-- 8 -->
      <g transform="translate(38.245 19.145858) scale(0.1 -0.1)">
       <defs>
        <path id="DejaVuSans-Bold-38" d="M 2228 2088 
Q 1891 2088 1709 1903 
Q 1528 1719 1528 1375 
Q 1528 1031 1709 848 
Q 1891 666 2228 666 
Q 2563 666 2741 848 
Q 2919 1031 2919 1375 
Q 2919 1722 2741 1905 
Q 2563 2088 2228 2088 
z
M 1350 2484 
Q 925 2613 709 2878 
Q 494 3144 494 3541 
Q 494 4131 934 4440 
Q 1375 4750 2228 4750 
Q 3075 4750 3515 4442 
Q 3956 4134 3956 3541 
Q 3956 3144 3739 2878 
Q 3522 2613 3097 2484 
Q 3572 2353 3814 2058 
Q 4056 1763 4056 1313 
Q 4056 619 3595 264 
Q 3134 -91 2228 -91 
Q 1319 -91 855 264 
Q 391 619 391 1313 
Q 391 1763 633 2058 
Q 875 2353 1350 2484 
z
M 1631 3419 
Q 1631 3141 1786 2991 
Q 1941 2841 2228 2841 
Q 2509 2841 2662 2991 
Q 2816 3141 2816 3419 
Q 2816 3697 2662 3845 
Q 2509 3994 2228 3994 
Q 1941 3994 1786 3844 
Q 1631 3694 1631 3419 
z
" transform="scale(0.015625)"/>
       </defs>
       <use xlink:href="#DejaVuSans-Bold-38"/>
      </g>
     </g>
    </g>
    <g id="text_5">
     <!-- Intensity (arb.) -->
     <g transform="translate(16.318125 114.10875) rotate(-90) scale(0.12 -0.12)">
      <defs>
       <path id="DejaVuSans-Bold-49" d="M 588 4666 
L 1791 4666 
L 1791 0 
L 588 0 
L 588 4666 
z
" transform="scale(0.015625)"/>
       <path id="DejaVuSans-Bold-6e" d="M 4056 2131 
L 4056 0 
L 2931 0 
L 2931 347 
L 2931 1631 
Q 2931 2084 2911 2256 
Q 2891 2428 2841 2509 
Q 2775 2619 2662 2680 
Q 2550 2741 2406 2741 
Q 2056 2741 1856 2470 
Q 1656 2200 1656 1722 
L 1656 0 
L 538 0 
L 538 3500 
L 1656 3500 
L 1656 2988 
Q 1909 3294 2193 3439 
Q 2478 3584 2822 3584 
Q 3428 3584 3742 3212 
Q 4056 2841 4056 2131 
z
" transform="scale(0.015625)"/>
       <path id="DejaVuSans-Bold-74" d="M 1759 4494 
L 1759 3500 
L 2913 3500 
L 2913 2700 
L 1759 2700 
L 1759 1216 
Q 1759 972 1856 886 
Q 1953 800 2241 800 
L 2816 800 
L 2816 0 
L 1856 0 
Q 1194 0 917 276 
Q 641 553 641 1216 
L 641 2700 
L 84 2700 
L 84 3500 
L 641 3500 
L 641 4494 
L 1759 4494 
z
" transform="scale(0.015625)"/>
       <path id="DejaVuSans-Bold-65" d="M 4031 1759 
L 4031 1441 
L 1416 1441 
Q 1456 1047 1700 850 
Q 1944 653 2381 653 
Q 2734 653 3104 758 
Q 3475 863 3866 1075 
L 3866 213 
Q 3469 63 3072 -14 
Q 2675 -91 2278 -91 
Q 1328 -91 801 392 
Q 275 875 275 1747 
Q 275 2603 792 3093 
Q 1309 3584 2216 3584 
Q 3041 3584 3536 3087 
Q 4031 2591 4031 1759 
z
M 2881 2131 
Q 2881 2450 2695 2645 
Q 2509 2841 2209 2841 
Q 1884 2841 1681 2658 
Q 1478 2475 1428 2131 
L 2881 2131 
z
" transform="scale(0.015625)"/>
       <path id="DejaVuSans-Bold-73" d="M 3272 3391 
L 3272 2541 
Q 2913 2691 2578 2766 
Q 2244 2841 1947 2841 
Q 1628 2841 1473 2761 
Q 1319 2681 1319 2516 
Q 1319 2381 1436 2309 
Q 1553 2238 1856 2203 
L 2053 2175 
Q 2913 2066 3209 1816 
Q 3506 1566 3506 1031 
Q 3506 472 3093 190 
Q 2681 -91 1863 -91 
Q 1516 -91 1145 -36 
Q 775 19 384 128 
L 384 978 
Q 719 816 1070 734 
Q 1422 653 1784 653 
Q 2113 653 2278 743 
Q 2444 834 2444 1013 
Q 2444 1163 2330 1236 
Q 2216 1309 1875 1350 
L 1678 1375 
Q 931 1469 631 1722 
Q 331 1975 331 2491 
Q 331 3047 712 3315 
Q 1094 3584 1881 3584 
Q 2191 3584 2531 3537 
Q 2872 3491 3272 3391 
z
" transform="scale(0.015625)"/>
       <path id="DejaVuSans-Bold-69" d="M 538 3500 
L 1656 3500 
L 1656 0 
L 538 0 
L 538 3500 
z
M 538 4863 
L 1656 4863 
L 1656 3950 
L 538 3950 
L 538 4863 
z
" transform="scale(0.015625)"/>
       <path id="DejaVuSans-Bold-79" d="M 78 3500 
L 1197 3500 
L 2138 1125 
L 2938 3500 
L 4056 3500 
L 2584 -331 
Q 2363 -916 2067 -1148 
Q 1772 -1381 1288 -1381 
L 641 -1381 
L 641 -647 
L 991 -647 
Q 1275 -647 1404 -556 
Q 1534 -466 1606 -231 
L 1638 -134 
L 78 3500 
z
" transform="scale(0.015625)"/>
       <path id="DejaVuSans-Bold-20" transform="scale(0.015625)"/>
       <path id="DejaVuSans-Bold-28" d="M 2413 -844 
L 1484 -844 
Q 1006 -72 778 623 
Q 550 1319 550 2003 
Q 550 2688 779 3389 
Q 1009 4091 1484 4856 
L 2413 4856 
Q 2013 4116 1813 3408 
Q 1613 2700 1613 2009 
Q 1613 1319 1811 609 
Q 2009 -100 2413 -844 
z
" transform="scale(0.015625)"/>
       <path id="DejaVuSans-Bold-61" d="M 2106 1575 
Q 1756 1575 1579 1456 
Q 1403 1338 1403 1106 
Q 1403 894 1545 773 
Q 1688 653 1941 653 
Q 2256 653 2472 879 
Q 2688 1106 2688 1447 
L 2688 1575 
L 2106 1575 
z
M 3816 1997 
L 3816 0 
L 2688 0 
L 2688 519 
Q 2463 200 2181 54 
Q 1900 -91 1497 -91 
Q 953 -91 614 226 
Q 275 544 275 1050 
Q 275 1666 698 1953 
Q 1122 2241 2028 2241 
L 2688 2241 
L 2688 2328 
Q 2688 2594 2478 2717 
Q 2269 2841 1825 2841 
Q 1466 2841 1156 2769 
Q 847 2697 581 2553 
L 581 3406 
Q 941 3494 1303 3539 
Q 1666 3584 2028 3584 
Q 2975 3584 3395 3211 
Q 3816 2838 3816 1997 
z
" transform="scale(0.015625)"/>
       <path id="DejaVuSans-Bold-72" d="M 3138 2547 
Q 2991 2616 2845 2648 
Q 2700 2681 2553 2681 
Q 2122 2681 1889 2404 
Q 1656 2128 1656 1613 
L 1656 0 
L 538 0 
L 538 3500 
L 1656 3500 
L 1656 2925 
Q 1872 3269 2151 3426 
Q 2431 3584 2822 3584 
Q 2878 3584 2943 3579 
Q 3009 3575 3134 3559 
L 3138 2547 
z
" transform="scale(0.015625)"/>
       <path id="DejaVuSans-Bold-62" d="M 2400 722 
Q 2759 722 2948 984 
Q 3138 1247 3138 1747 
Q 3138 2247 2948 2509 
Q 2759 2772 2400 2772 
Q 2041 2772 1848 2508 
Q 1656 2244 1656 1747 
Q 1656 1250 1848 986 
Q 2041 722 2400 722 
z
M 1656 2988 
Q 1888 3294 2169 3439 
Q 2450 3584 2816 3584 
Q 3463 3584 3878 3070 
Q 4294 2556 4294 1747 
Q 4294 938 3878 423 
Q 3463 -91 2816 -91 
Q 2450 -91 2169 54 
Q 1888 200 1656 506 
L 1656 0 
L 538 0 
L 538 4863 
L 1656 4863 
L 1656 2988 
z
" transform="scale(0.015625)"/>
       <path id="DejaVuSans-Bold-2e" d="M 653 1209 
L 1778 1209 
L 1778 0 
L 653 0 
L 653 1209 
z
" transform="scale(0.015625)"/>
       <path id="DejaVuSans-Bold-29" d="M 513 -844 
Q 913 -100 1113 609 
Q 1313 1319 1313 2009 
Q 1313 2700 1113 3408 
Q 913 4116 513 4856 
L 1441 4856 
Q 1916 4091 2145 3389 
Q 2375 2688 2375 2003 
Q 2375 1319 2147 623 
Q 1919 -72 1441 -844 
L 513 -844 
z
" transform="scale(0.015625)"/>
      </defs>
      <use xlink:href="#DejaVuSans-Bold-49"/>
      <use xlink:href="#DejaVuSans-Bold-6e" x="37.207031"/>
      <use xlink:href="#DejaVuSans-Bold-74" x="108.398438"/>
      <use xlink:href="#DejaVuSans-Bold-65" x="156.201172"/>
      <use xlink:href="#DejaVuSans-Bold-6e" x="224.023438"/>
      <use xlink:href="#DejaVuSans-Bold-73" x="295.214844"/>
      <use xlink:href="#DejaVuSans-Bold-69" x="354.736328"/>
      <use xlink:href="#DejaVuSans-Bold-74" x="389.013672"/>
      <use xlink:href="#DejaVuSans-Bold-79" x="436.816406"/>
      <use xlink:href="#DejaVuSans-Bold-20" x="502.001953"/>
      <use xlink:href="#DejaVuSans-Bold-28" x="536.816406"/>
      <use xlink:href="#DejaVuSans-Bold-61" x="582.519531"/>
      <use xlink:href="#DejaVuSans-Bold-72" x="650"/>
      <use xlink:href="#DejaVuSans-Bold-62" x="699.316406"/>
      <use xlink:href="#DejaVuSans-Bold-2e" x="770.898438"/>
      <use xlink:href="#DejaVuSans-Bold-29" x="808.886719"/>
     </g>
    </g>
   </g>
   <g id="line2d_19">
    <path d="M -1 111.830752 
L 1.089 111.847635 
L 9.037624 110.351829 
L 17.104841 110.976168 
L 18.592334 110.744413 
L 20.132104 110.963141 
L 21.713504 110.846008 
L 23.332175 111.435454 
L 24.836126 111.531461 
L 26.54241 111.07893 
L 29.729895 110.741061 
L 31.341306 111.629736 
L 32.872363 111.443359 
L 34.366633 111.797661 
L 35.999342 111.020947 
L 37.646572 112.359083 
L 39.12874 111.651965 
L 40.831637 111.315475 
L 42.376248 110.876135 
L 43.951354 111.538871 
L 48.743957 110.549776 
L 50.27211 108.609255 
L 51.869967 104.868314 
L 53.500256 95.50756 
L 55.065681 84.244813 
L 56.528487 71.000873 
L 58.290922 64.51223 
L 59.704355 63.340666 
L 61.571829 65.383709 
L 62.899585 67.812039 
L 64.487761 69.821132 
L 66.217764 69.50149 
L 67.760923 64.800509 
L 69.26439 50.073088 
L 70.908232 35.862533 
L 72.464944 20.139457 
L 74.090876 12.257727 
L 75.705675 19.779322 
L 77.284654 31.78712 
L 78.851047 48.784277 
L 80.390818 63.417912 
L 82.062251 73.240901 
L 83.677534 79.790486 
L 85.197458 84.575409 
L 86.827746 86.894795 
L 88.276999 88.646509 
L 90.017652 90.200676 
L 91.482394 91.866732 
L 93.176578 92.051039 
L 94.786052 90.723638 
L 96.328727 88.925738 
L 97.759102 86.409866 
L 99.342921 81.76164 
L 101.102935 71.780688 
L 102.687723 59.867942 
L 104.270574 56.293434 
L 105.729024 59.998974 
L 107.399489 66.704774 
L 108.981856 74.45205 
L 110.53518 80.902451 
L 112.131585 83.786457 
L 113.728474 84.81951 
L 115.370864 84.832022 
L 116.980822 84.539589 
L 118.402 83.79579 
L 120.053102 82.75773 
L 121.684359 80.764005 
L 123.167495 79.526928 
L 126.488579 75.300012 
L 127.95671 72.641998 
L 129.512938 69.098754 
L 131.202765 64.510145 
L 132.840314 61.997467 
L 134.476895 62.441913 
L 135.943574 63.134373 
L 137.491089 65.293901 
L 140.761831 68.22828 
L 142.356784 68.811483 
L 143.959966 69.156428 
L 145.389372 69.176812 
L 147.060321 70.292043 
L 150.124857 69.900097 
L 153.528229 68.617416 
L 154.899065 68.422986 
L 161.384399 63.587586 
L 162.968219 62.939996 
L 164.541873 61.310257 
L 166.184263 60.380314 
L 167.682405 58.474795 
L 169.396918 56.749315 
L 170.896513 53.944176 
L 172.308009 52.649045 
L 174.037045 51.268532 
L 175.592305 49.85164 
L 179.564923 46.859379 
L 187.416252 45.130911 
L 195.366329 42.477057 
L 199.392193 41.488766 
L 203.31931 41.865415 
L 207.283699 40.718727 
L 211.351191 42.001058 
L 215.281696 41.781393 
L 219.17977 42.37692 
L 223.204666 42.306233 
L 227.052882 43.118062 
L 231.047766 42.861151 
L 235.033938 44.656284 
L 238.960087 45.169227 
L 243.168922 46.180561 
L 246.975026 47.833251 
L 250.925862 48.75182 
L 255.016104 49.265145 
L 258.891428 49.45322 
L 262.84662 50.161396 
L 266.684671 50.482052 
L 274.755277 50.716184 
L 278.665936 50.435731 
L 282.705353 49.894567 
L 286.544372 50.411845 
L 290.523767 50.131122 
L 298.539675 48.845422 
L 302.638146 49.02473 
L 314.553096 49.890731 
L 318.443909 50.054908 
L 322.169176 50.434772 
L 326.33251 50.6907 
L 330.314809 51.088991 
L 334.213851 51.290451 
L 341.993057 51.363461 
L 346.077491 51.579899 
L 350.134334 51.476848 
L 354.036281 51.69141 
L 357.856422 52.104481 
L 365.962363 51.96264 
L 369.995004 52.533574 
L 373.842736 53.2425 
L 377.826971 53.530577 
L 381.683417 54.417132 
L 385.729126 54.630286 
L 389.992813 55.878814 
L 389.992813 55.878814 
" clip-path="url(#p0f54367511)" style="fill: none; stroke: #dc143c; stroke-opacity: 0.8; stroke-width: 2; stroke-linecap: square"/>
   </g>
   <g id="line2d_20">
    <path d="M -1 113.339827 
L 1.091904 113.412273 
L 9.02407 112.47694 
L 17.006578 112.987801 
L 18.675591 112.570555 
L 20.111774 112.632253 
L 21.797245 112.892454 
L 24.91793 112.476416 
L 26.505138 113.072809 
L 28.105415 112.205925 
L 29.68391 112.090843 
L 31.23675 112.790608 
L 32.673418 112.944176 
L 34.355016 112.908193 
L 35.950452 111.588641 
L 37.602039 112.676007 
L 40.730954 111.986741 
L 42.341396 111.92112 
L 44.032675 112.231768 
L 45.597616 111.358288 
L 47.203218 110.934169 
L 48.67619 110.957343 
L 50.247424 109.076217 
L 51.864159 105.121999 
L 53.473633 96.008138 
L 56.602547 73.169596 
L 58.206697 66.770105 
L 59.86264 65.622434 
L 61.449364 67.151925 
L 64.733659 71.148342 
L 66.15871 70.754943 
L 67.821914 67.893322 
L 69.283268 54.435576 
L 70.918881 40.613186 
L 72.501732 25.325086 
L 74.084099 17.183439 
L 75.58563 24.571186 
L 77.32241 35.190516 
L 78.888803 50.549333 
L 80.558784 65.430878 
L 82.047245 75.401437 
L 83.575883 81.743915 
L 85.201815 85.990013 
L 88.384943 90.829772 
L 89.982316 92.544207 
L 91.464 94.369626 
L 93.133497 94.166726 
L 96.2992 90.912952 
L 97.805086 88.219819 
L 99.481844 83.986334 
L 101.066147 74.901949 
L 102.626248 63.508698 
L 104.276867 59.906283 
L 105.805988 62.992606 
L 107.458543 69.12818 
L 110.561803 82.402778 
L 112.068658 84.840279 
L 113.722665 86.137129 
L 116.959523 86.318739 
L 120.062783 84.552472 
L 121.906539 82.630153 
L 123.218805 81.649066 
L 127.962518 74.920127 
L 129.365302 71.144825 
L 131.149519 66.729318 
L 132.675736 64.005988 
L 134.475443 64.188831 
L 135.896137 64.993196 
L 137.551596 67.448938 
L 139.2148 68.634938 
L 140.682447 70.144374 
L 142.311767 70.867124 
L 143.81717 70.526759 
L 150.356234 71.761727 
L 151.844695 71.11986 
L 153.411088 70.974064 
L 154.899065 69.679845 
L 156.573403 69.321334 
L 158.159642 67.789435 
L 159.895454 66.849713 
L 161.300658 65.149602 
L 166.10391 61.274148 
L 167.604956 59.582497 
L 169.232341 57.029928 
L 170.900385 55.251937 
L 172.367548 52.693478 
L 173.945075 50.87923 
L 179.623977 45.385228 
L 183.523019 44.88559 
L 187.550335 43.101191 
L 191.561677 42.517174 
L 195.411346 40.54122 
L 199.328782 39.470992 
L 203.383689 39.870058 
L 207.332104 38.238247 
L 211.147889 39.584323 
L 215.296702 39.764123 
L 219.258671 40.294755 
L 223.310189 40.309222 
L 227.044169 40.109416 
L 231.139252 40.682944 
L 234.968107 41.645701 
L 238.956698 42.495052 
L 250.889558 45.922015 
L 254.880086 46.379156 
L 258.913694 46.546758 
L 262.820481 47.334965 
L 266.760183 47.493148 
L 270.749259 47.819602 
L 274.734946 47.799897 
L 286.608751 46.560481 
L 290.606056 46.775191 
L 298.655363 45.586239 
L 302.489542 45.625687 
L 306.460224 45.879813 
L 310.32877 46.299598 
L 318.334029 46.748802 
L 326.226503 47.069274 
L 330.28383 47.982439 
L 334.164478 47.62691 
L 338.238263 48.350831 
L 342.054048 48.205885 
L 346.124928 48.527181 
L 350.105775 48.589961 
L 353.983035 49.065339 
L 358.046655 49.020174 
L 361.951505 49.437124 
L 365.898952 49.308238 
L 369.987259 49.372266 
L 373.852901 50.774015 
L 377.720964 50.687417 
L 385.571809 51.923986 
L 389.992813 53.236452 
L 389.992813 53.236452 
" clip-path="url(#p0f54367511)" style="fill: none; stroke: #0000cd; stroke-opacity: 0.8; stroke-width: 2; stroke-linecap: square"/>
   </g>
   <g id="patch_3">
    <path d="M 48.702813 118.47 
L 48.702813 7.2 
" style="fill: none; stroke: #000000; stroke-width: 0.8; stroke-linejoin: miter; stroke-linecap: square"/>
   </g>
   <g id="patch_4">
    <path d="M 381.792813 118.47 
L 381.792813 7.2 
" style="fill: none; stroke: #000000; stroke-width: 0.8; stroke-linejoin: miter; stroke-linecap: square"/>
   </g>
   <g id="patch_5">
    <path d="M 48.702812 118.47 
L 381.792812 118.47 
" style="fill: none; stroke: #000000; stroke-width: 0.8; stroke-linejoin: miter; stroke-linecap: square"/>
   </g>
   <g id="patch_6">
    <path d="M 48.702812 7.2 
L 381.792812 7.2 
" style="fill: none; stroke: #000000; stroke-width: 0.8; stroke-linejoin: miter; stroke-linecap: square"/>
   </g>
   <g id="legend_1">
    <g id="patch_7">
     <path d="M 309.276719 113.97 
L 377.292813 113.97 
L 377.292813 70.67125 
L 309.276719 70.67125 
z
" style="fill: #ffffff; stroke: #cccccc; stroke-linejoin: miter"/>
    </g>
    <g id="text_6">
     <!-- Substrate -->
     <g transform="translate(315.558984 81.869687) scale(0.1 -0.1)">
      <defs>
       <path id="DejaVuSans-Bold-53" d="M 3834 4519 
L 3834 3531 
Q 3450 3703 3084 3790 
Q 2719 3878 2394 3878 
Q 1963 3878 1756 3759 
Q 1550 3641 1550 3391 
Q 1550 3203 1689 3098 
Q 1828 2994 2194 2919 
L 2706 2816 
Q 3484 2659 3812 2340 
Q 4141 2022 4141 1434 
Q 4141 663 3683 286 
Q 3225 -91 2284 -91 
Q 1841 -91 1394 -6 
Q 947 78 500 244 
L 500 1259 
Q 947 1022 1364 901 
Q 1781 781 2169 781 
Q 2563 781 2772 912 
Q 2981 1044 2981 1288 
Q 2981 1506 2839 1625 
Q 2697 1744 2272 1838 
L 1806 1941 
Q 1106 2091 782 2419 
Q 459 2747 459 3303 
Q 459 4000 909 4375 
Q 1359 4750 2203 4750 
Q 2588 4750 2994 4692 
Q 3400 4634 3834 4519 
z
" transform="scale(0.015625)"/>
       <path id="DejaVuSans-Bold-75" d="M 500 1363 
L 500 3500 
L 1625 3500 
L 1625 3150 
Q 1625 2866 1622 2436 
Q 1619 2006 1619 1863 
Q 1619 1441 1641 1255 
Q 1663 1069 1716 984 
Q 1784 875 1895 815 
Q 2006 756 2150 756 
Q 2500 756 2700 1025 
Q 2900 1294 2900 1772 
L 2900 3500 
L 4019 3500 
L 4019 0 
L 2900 0 
L 2900 506 
Q 2647 200 2364 54 
Q 2081 -91 1741 -91 
Q 1134 -91 817 281 
Q 500 653 500 1363 
z
" transform="scale(0.015625)"/>
      </defs>
      <use xlink:href="#DejaVuSans-Bold-53"/>
      <use xlink:href="#DejaVuSans-Bold-75" x="72.021484"/>
      <use xlink:href="#DejaVuSans-Bold-62" x="143.212891"/>
      <use xlink:href="#DejaVuSans-Bold-73" x="214.794922"/>
      <use xlink:href="#DejaVuSans-Bold-74" x="274.316406"/>
      <use xlink:href="#DejaVuSans-Bold-72" x="322.119141"/>
      <use xlink:href="#DejaVuSans-Bold-61" x="371.435547"/>
      <use xlink:href="#DejaVuSans-Bold-74" x="438.916016"/>
      <use xlink:href="#DejaVuSans-Bold-65" x="486.71875"/>
     </g>
    </g>
    <g id="line2d_21">
     <path d="M 312.876719 92.137969 
L 319.626719 92.137969 
L 326.376719 92.137969 
" style="fill: none; stroke: #dc143c; stroke-opacity: 0.8; stroke-width: 2; stroke-linecap: square"/>
    </g>
    <g id="text_7">
     <!-- CuI: 55° -->
     <g transform="translate(333.576719 95.287969) scale(0.09 -0.09)">
      <defs>
       <path id="DejaVuSans-Bold-43" d="M 4288 256 
Q 3956 84 3597 -3 
Q 3238 -91 2847 -91 
Q 1681 -91 1000 561 
Q 319 1213 319 2328 
Q 319 3447 1000 4098 
Q 1681 4750 2847 4750 
Q 3238 4750 3597 4662 
Q 3956 4575 4288 4403 
L 4288 3438 
Q 3953 3666 3628 3772 
Q 3303 3878 2944 3878 
Q 2300 3878 1931 3465 
Q 1563 3053 1563 2328 
Q 1563 1606 1931 1193 
Q 2300 781 2944 781 
Q 3303 781 3628 887 
Q 3953 994 4288 1222 
L 4288 256 
z
" transform="scale(0.015625)"/>
       <path id="DejaVuSans-Bold-3a" d="M 716 3500 
L 1844 3500 
L 1844 2291 
L 716 2291 
L 716 3500 
z
M 716 1209 
L 1844 1209 
L 1844 0 
L 716 0 
L 716 1209 
z
" transform="scale(0.015625)"/>
       <path id="DejaVuSans-Bold-35" d="M 678 4666 
L 3669 4666 
L 3669 3781 
L 1638 3781 
L 1638 3059 
Q 1775 3097 1914 3117 
Q 2053 3138 2203 3138 
Q 3056 3138 3531 2711 
Q 4006 2284 4006 1522 
Q 4006 766 3489 337 
Q 2972 -91 2053 -91 
Q 1656 -91 1267 -14 
Q 878 63 494 219 
L 494 1166 
Q 875 947 1217 837 
Q 1559 728 1863 728 
Q 2300 728 2551 942 
Q 2803 1156 2803 1522 
Q 2803 1891 2551 2103 
Q 2300 2316 1863 2316 
Q 1603 2316 1309 2248 
Q 1016 2181 678 2041 
L 678 4666 
z
" transform="scale(0.015625)"/>
       <path id="DejaVuSans-Bold-b0" d="M 1600 4288 
Q 1375 4288 1219 4131 
Q 1063 3975 1063 3750 
Q 1063 3525 1217 3372 
Q 1372 3219 1600 3219 
Q 1825 3219 1981 3373 
Q 2138 3528 2138 3750 
Q 2138 3975 1980 4131 
Q 1822 4288 1600 4288 
z
M 1600 4794 
Q 1806 4794 1997 4714 
Q 2188 4634 2338 4488 
Q 2484 4338 2561 4150 
Q 2638 3963 2638 3750 
Q 2638 3541 2561 3352 
Q 2484 3163 2344 3022 
Q 2194 2872 2000 2792 
Q 1806 2713 1594 2713 
Q 1153 2713 854 3011 
Q 556 3309 556 3750 
Q 556 4191 857 4492 
Q 1159 4794 1600 4794 
z
" transform="scale(0.015625)"/>
      </defs>
      <use xlink:href="#DejaVuSans-Bold-43"/>
      <use xlink:href="#DejaVuSans-Bold-75" x="73.388672"/>
      <use xlink:href="#DejaVuSans-Bold-49" x="144.580078"/>
      <use xlink:href="#DejaVuSans-Bold-3a" x="181.787109"/>
      <use xlink:href="#DejaVuSans-Bold-20" x="221.777344"/>
      <use xlink:href="#DejaVuSans-Bold-35" x="256.591797"/>
      <use xlink:href="#DejaVuSans-Bold-35" x="326.171875"/>
      <use xlink:href="#DejaVuSans-Bold-b0" x="395.751953"/>
     </g>
    </g>
    <g id="line2d_22">
     <path d="M 312.876719 105.348281 
L 319.626719 105.348281 
L 326.376719 105.348281 
" style="fill: none; stroke: #0000cd; stroke-opacity: 0.8; stroke-width: 2; stroke-linecap: square"/>
    </g>
    <g id="text_8">
     <!-- Si: 55° -->
     <g transform="translate(333.576719 108.498281) scale(0.09 -0.09)">
      <use xlink:href="#DejaVuSans-Bold-53"/>
      <use xlink:href="#DejaVuSans-Bold-69" x="72.021484"/>
      <use xlink:href="#DejaVuSans-Bold-3a" x="106.298828"/>
      <use xlink:href="#DejaVuSans-Bold-20" x="146.289062"/>
      <use xlink:href="#DejaVuSans-Bold-35" x="181.103516"/>
      <use xlink:href="#DejaVuSans-Bold-35" x="250.683594"/>
      <use xlink:href="#DejaVuSans-Bold-b0" x="320.263672"/>
     </g>
    </g>
   </g>
  </g>
  <g id="axes_2">
   <g id="patch_8">
    <path d="M 48.702813 244.5 
L 381.792813 244.5 
L 381.792813 133.23 
L 48.702813 133.23 
L 48.702813 244.5 
z
" style="fill: none"/>
   </g>
   <g id="patch_9">
    <path d="M 48.702813 216.6825 
L 381.792813 216.6825 
L 381.792813 161.0475 
L 48.702813 161.0475 
z
" clip-path="url(#pe120d39f18)" style="fill: #008000; opacity: 0.1; stroke: #008000; stroke-linejoin: miter"/>
   </g>
   <g id="matplotlib.axis_3">
    <g id="xtick_6">
     <g id="line2d_23">
      <path d="M 48.702812 244.5 
L 48.702812 133.23 
" clip-path="url(#pe120d39f18)" style="fill: none; stroke: #b0b0b0; stroke-opacity: 0.3; stroke-width: 0.8; stroke-linecap: square"/>
     </g>
     <g id="line2d_24">
      <g>
       <use xlink:href="#mde9f56fee8" x="48.702812" y="244.5" style="stroke: #000000; stroke-width: 0.8"/>
      </g>
     </g>
     <g id="text_9">
      <!-- 284 -->
      <g transform="translate(38.266094 255.598437) scale(0.1 -0.1)">
       <use xlink:href="#DejaVuSans-Bold-32"/>
       <use xlink:href="#DejaVuSans-Bold-38" x="69.580078"/>
       <use xlink:href="#DejaVuSans-Bold-34" x="139.160156"/>
      </g>
     </g>
    </g>
    <g id="xtick_7">
     <g id="line2d_25">
      <path d="M 128.009955 244.5 
L 128.009955 133.23 
" clip-path="url(#pe120d39f18)" style="fill: none; stroke: #b0b0b0; stroke-opacity: 0.3; stroke-width: 0.8; stroke-linecap: square"/>
     </g>
     <g id="line2d_26">
      <g>
       <use xlink:href="#mde9f56fee8" x="128.009955" y="244.5" style="stroke: #000000; stroke-width: 0.8"/>
      </g>
     </g>
     <g id="text_10">
      <!-- 289 -->
      <g transform="translate(117.573237 255.598437) scale(0.1 -0.1)">
       <defs>
        <path id="DejaVuSans-Bold-39" d="M 641 103 
L 641 966 
Q 928 831 1190 764 
Q 1453 697 1709 697 
Q 2247 697 2547 995 
Q 2847 1294 2900 1881 
Q 2688 1725 2447 1647 
Q 2206 1569 1925 1569 
Q 1209 1569 770 1986 
Q 331 2403 331 3084 
Q 331 3838 820 4291 
Q 1309 4744 2131 4744 
Q 3044 4744 3544 4128 
Q 4044 3513 4044 2388 
Q 4044 1231 3459 570 
Q 2875 -91 1856 -91 
Q 1528 -91 1228 -42 
Q 928 6 641 103 
z
M 2125 2350 
Q 2441 2350 2600 2554 
Q 2759 2759 2759 3169 
Q 2759 3575 2600 3781 
Q 2441 3988 2125 3988 
Q 1809 3988 1650 3781 
Q 1491 3575 1491 3169 
Q 1491 2759 1650 2554 
Q 1809 2350 2125 2350 
z
" transform="scale(0.015625)"/>
       </defs>
       <use xlink:href="#DejaVuSans-Bold-32"/>
       <use xlink:href="#DejaVuSans-Bold-38" x="69.580078"/>
       <use xlink:href="#DejaVuSans-Bold-39" x="139.160156"/>
      </g>
     </g>
    </g>
    <g id="xtick_8">
     <g id="line2d_27">
      <path d="M 207.317098 244.5 
L 207.317098 133.23 
" clip-path="url(#pe120d39f18)" style="fill: none; stroke: #b0b0b0; stroke-opacity: 0.3; stroke-width: 0.8; stroke-linecap: square"/>
     </g>
     <g id="line2d_28">
      <g>
       <use xlink:href="#mde9f56fee8" x="207.317098" y="244.5" style="stroke: #000000; stroke-width: 0.8"/>
      </g>
     </g>
     <g id="text_11">
      <!-- 294 -->
      <g transform="translate(196.880379 255.598437) scale(0.1 -0.1)">
       <use xlink:href="#DejaVuSans-Bold-32"/>
       <use xlink:href="#DejaVuSans-Bold-39" x="69.580078"/>
       <use xlink:href="#DejaVuSans-Bold-34" x="139.160156"/>
      </g>
     </g>
    </g>
    <g id="xtick_9">
     <g id="line2d_29">
      <path d="M 286.624241 244.5 
L 286.624241 133.23 
" clip-path="url(#pe120d39f18)" style="fill: none; stroke: #b0b0b0; stroke-opacity: 0.3; stroke-width: 0.8; stroke-linecap: square"/>
     </g>
     <g id="line2d_30">
      <g>
       <use xlink:href="#mde9f56fee8" x="286.624241" y="244.5" style="stroke: #000000; stroke-width: 0.8"/>
      </g>
     </g>
     <g id="text_12">
      <!-- 299 -->
      <g transform="translate(276.187522 255.598437) scale(0.1 -0.1)">
       <use xlink:href="#DejaVuSans-Bold-32"/>
       <use xlink:href="#DejaVuSans-Bold-39" x="69.580078"/>
       <use xlink:href="#DejaVuSans-Bold-39" x="139.160156"/>
      </g>
     </g>
    </g>
    <g id="xtick_10">
     <g id="line2d_31">
      <path d="M 365.931384 244.5 
L 365.931384 133.23 
" clip-path="url(#pe120d39f18)" style="fill: none; stroke: #b0b0b0; stroke-opacity: 0.3; stroke-width: 0.8; stroke-linecap: square"/>
     </g>
     <g id="line2d_32">
      <g>
       <use xlink:href="#mde9f56fee8" x="365.931384" y="244.5" style="stroke: #000000; stroke-width: 0.8"/>
      </g>
     </g>
     <g id="text_13">
      <!-- 304 -->
      <g transform="translate(355.494665 255.598437) scale(0.1 -0.1)">
       <defs>
        <path id="DejaVuSans-Bold-33" d="M 2981 2516 
Q 3453 2394 3698 2092 
Q 3944 1791 3944 1325 
Q 3944 631 3412 270 
Q 2881 -91 1863 -91 
Q 1503 -91 1142 -33 
Q 781 25 428 141 
L 428 1069 
Q 766 900 1098 814 
Q 1431 728 1753 728 
Q 2231 728 2486 893 
Q 2741 1059 2741 1369 
Q 2741 1688 2480 1852 
Q 2219 2016 1709 2016 
L 1228 2016 
L 1228 2791 
L 1734 2791 
Q 2188 2791 2409 2933 
Q 2631 3075 2631 3366 
Q 2631 3634 2415 3781 
Q 2200 3928 1806 3928 
Q 1516 3928 1219 3862 
Q 922 3797 628 3669 
L 628 4550 
Q 984 4650 1334 4700 
Q 1684 4750 2022 4750 
Q 2931 4750 3382 4451 
Q 3834 4153 3834 3553 
Q 3834 3144 3618 2883 
Q 3403 2622 2981 2516 
z
" transform="scale(0.015625)"/>
        <path id="DejaVuSans-Bold-30" d="M 2944 2338 
Q 2944 3213 2780 3570 
Q 2616 3928 2228 3928 
Q 1841 3928 1675 3570 
Q 1509 3213 1509 2338 
Q 1509 1453 1675 1090 
Q 1841 728 2228 728 
Q 2613 728 2778 1090 
Q 2944 1453 2944 2338 
z
M 4147 2328 
Q 4147 1169 3647 539 
Q 3147 -91 2228 -91 
Q 1306 -91 806 539 
Q 306 1169 306 2328 
Q 306 3491 806 4120 
Q 1306 4750 2228 4750 
Q 3147 4750 3647 4120 
Q 4147 3491 4147 2328 
z
" transform="scale(0.015625)"/>
       </defs>
       <use xlink:href="#DejaVuSans-Bold-33"/>
       <use xlink:href="#DejaVuSans-Bold-30" x="69.580078"/>
       <use xlink:href="#DejaVuSans-Bold-34" x="139.160156"/>
      </g>
     </g>
    </g>
    <g id="text_14">
     <!-- Energy (eV) -->
     <g transform="translate(175.357188 270.783125) scale(0.12 -0.12)">
      <defs>
       <path id="DejaVuSans-Bold-45" d="M 588 4666 
L 3834 4666 
L 3834 3756 
L 1791 3756 
L 1791 2888 
L 3713 2888 
L 3713 1978 
L 1791 1978 
L 1791 909 
L 3903 909 
L 3903 0 
L 588 0 
L 588 4666 
z
" transform="scale(0.015625)"/>
       <path id="DejaVuSans-Bold-67" d="M 2919 594 
Q 2688 288 2409 144 
Q 2131 0 1766 0 
Q 1125 0 706 504 
Q 288 1009 288 1791 
Q 288 2575 706 3076 
Q 1125 3578 1766 3578 
Q 2131 3578 2409 3434 
Q 2688 3291 2919 2981 
L 2919 3500 
L 4044 3500 
L 4044 353 
Q 4044 -491 3511 -936 
Q 2978 -1381 1966 -1381 
Q 1638 -1381 1331 -1331 
Q 1025 -1281 716 -1178 
L 716 -306 
Q 1009 -475 1290 -558 
Q 1572 -641 1856 -641 
Q 2406 -641 2662 -400 
Q 2919 -159 2919 353 
L 2919 594 
z
M 2181 2772 
Q 1834 2772 1640 2515 
Q 1447 2259 1447 1791 
Q 1447 1309 1634 1061 
Q 1822 813 2181 813 
Q 2531 813 2725 1069 
Q 2919 1325 2919 1791 
Q 2919 2259 2725 2515 
Q 2531 2772 2181 2772 
z
" transform="scale(0.015625)"/>
       <path id="DejaVuSans-Bold-56" d="M 31 4666 
L 1241 4666 
L 2478 1222 
L 3713 4666 
L 4922 4666 
L 3194 0 
L 1759 0 
L 31 4666 
z
" transform="scale(0.015625)"/>
      </defs>
      <use xlink:href="#DejaVuSans-Bold-45"/>
      <use xlink:href="#DejaVuSans-Bold-6e" x="68.310547"/>
      <use xlink:href="#DejaVuSans-Bold-65" x="139.501953"/>
      <use xlink:href="#DejaVuSans-Bold-72" x="207.324219"/>
      <use xlink:href="#DejaVuSans-Bold-67" x="256.640625"/>
      <use xlink:href="#DejaVuSans-Bold-79" x="328.222656"/>
      <use xlink:href="#DejaVuSans-Bold-20" x="393.408203"/>
      <use xlink:href="#DejaVuSans-Bold-28" x="428.222656"/>
      <use xlink:href="#DejaVuSans-Bold-65" x="473.925781"/>
      <use xlink:href="#DejaVuSans-Bold-56" x="541.748047"/>
      <use xlink:href="#DejaVuSans-Bold-29" x="619.140625"/>
     </g>
    </g>
   </g>
   <g id="matplotlib.axis_4">
    <g id="ytick_5">
     <g id="line2d_33">
      <path d="M 48.702813 244.5 
L 381.792813 244.5 
" clip-path="url(#pe120d39f18)" style="fill: none; stroke: #b0b0b0; stroke-opacity: 0.3; stroke-width: 0.8; stroke-linecap: square"/>
     </g>
     <g id="line2d_34">
      <g>
       <use xlink:href="#md125793812" x="48.702813" y="244.5" style="stroke: #000000; stroke-width: 0.8"/>
      </g>
     </g>
     <g id="text_15">
      <!-- −10 -->
      <g transform="translate(22.9075 248.299219) scale(0.1 -0.1)">
       <defs>
        <path id="DejaVuSans-Bold-2212" d="M 678 2375 
L 4684 2375 
L 4684 1638 
L 678 1638 
L 678 2375 
z
" transform="scale(0.015625)"/>
        <path id="DejaVuSans-Bold-31" d="M 750 831 
L 1813 831 
L 1813 3847 
L 722 3622 
L 722 4441 
L 1806 4666 
L 2950 4666 
L 2950 831 
L 4013 831 
L 4013 0 
L 750 0 
L 750 831 
z
" transform="scale(0.015625)"/>
       </defs>
       <use xlink:href="#DejaVuSans-Bold-2212"/>
       <use xlink:href="#DejaVuSans-Bold-31" x="83.789062"/>
       <use xlink:href="#DejaVuSans-Bold-30" x="153.369141"/>
      </g>
     </g>
    </g>
    <g id="ytick_6">
     <g id="line2d_35">
      <path d="M 48.702813 216.6825 
L 381.792813 216.6825 
" clip-path="url(#pe120d39f18)" style="fill: none; stroke: #b0b0b0; stroke-opacity: 0.3; stroke-width: 0.8; stroke-linecap: square"/>
     </g>
     <g id="line2d_36">
      <g>
       <use xlink:href="#md125793812" x="48.702813" y="216.6825" style="stroke: #000000; stroke-width: 0.8"/>
      </g>
     </g>
     <g id="text_16">
      <!-- −5 -->
      <g transform="translate(29.865313 220.481719) scale(0.1 -0.1)">
       <use xlink:href="#DejaVuSans-Bold-2212"/>
       <use xlink:href="#DejaVuSans-Bold-35" x="83.789062"/>
      </g>
     </g>
    </g>
    <g id="ytick_7">
     <g id="line2d_37">
      <path d="M 48.702813 188.865 
L 381.792813 188.865 
" clip-path="url(#pe120d39f18)" style="fill: none; stroke: #b0b0b0; stroke-opacity: 0.3; stroke-width: 0.8; stroke-linecap: square"/>
     </g>
     <g id="line2d_38">
      <g>
       <use xlink:href="#md125793812" x="48.702813" y="188.865" style="stroke: #000000; stroke-width: 0.8"/>
      </g>
     </g>
     <g id="text_17">
      <!-- 0 -->
      <g transform="translate(38.245 192.664219) scale(0.1 -0.1)">
       <use xlink:href="#DejaVuSans-Bold-30"/>
      </g>
     </g>
    </g>
    <g id="ytick_8">
     <g id="line2d_39">
      <path d="M 48.702813 161.0475 
L 381.792813 161.0475 
" clip-path="url(#pe120d39f18)" style="fill: none; stroke: #b0b0b0; stroke-opacity: 0.3; stroke-width: 0.8; stroke-linecap: square"/>
     </g>
     <g id="line2d_40">
      <g>
       <use xlink:href="#md125793812" x="48.702813" y="161.0475" style="stroke: #000000; stroke-width: 0.8"/>
      </g>
     </g>
     <g id="text_18">
      <!-- 5 -->
      <g transform="translate(38.245 164.846719) scale(0.1 -0.1)">
       <use xlink:href="#DejaVuSans-Bold-35"/>
      </g>
     </g>
    </g>
    <g id="ytick_9">
     <g id="line2d_41">
      <path d="M 48.702813 133.23 
L 381.792813 133.23 
" clip-path="url(#pe120d39f18)" style="fill: none; stroke: #b0b0b0; stroke-opacity: 0.3; stroke-width: 0.8; stroke-linecap: square"/>
     </g>
     <g id="line2d_42">
      <g>
       <use xlink:href="#md125793812" x="48.702813" y="133.23" style="stroke: #000000; stroke-width: 0.8"/>
      </g>
     </g>
     <g id="text_19">
      <!-- 10 -->
      <g transform="translate(31.287188 137.029219) scale(0.1 -0.1)">
       <use xlink:href="#DejaVuSans-Bold-31"/>
       <use xlink:href="#DejaVuSans-Bold-30" x="69.580078"/>
      </g>
     </g>
    </g>
    <g id="text_20">
     <!-- Residuals (%) -->
     <g transform="translate(16.411875 235.010625) rotate(-90) scale(0.12 -0.12)">
      <defs>
       <path id="DejaVuSans-Bold-52" d="M 2297 2597 
Q 2675 2597 2839 2737 
Q 3003 2878 3003 3200 
Q 3003 3519 2839 3656 
Q 2675 3794 2297 3794 
L 1791 3794 
L 1791 2597 
L 2297 2597 
z
M 1791 1766 
L 1791 0 
L 588 0 
L 588 4666 
L 2425 4666 
Q 3347 4666 3776 4356 
Q 4206 4047 4206 3378 
Q 4206 2916 3982 2619 
Q 3759 2322 3309 2181 
Q 3556 2125 3751 1926 
Q 3947 1728 4147 1325 
L 4800 0 
L 3519 0 
L 2950 1159 
Q 2778 1509 2601 1637 
Q 2425 1766 2131 1766 
L 1791 1766 
z
" transform="scale(0.015625)"/>
       <path id="DejaVuSans-Bold-64" d="M 2919 2988 
L 2919 4863 
L 4044 4863 
L 4044 0 
L 2919 0 
L 2919 506 
Q 2688 197 2409 53 
Q 2131 -91 1766 -91 
Q 1119 -91 703 423 
Q 288 938 288 1747 
Q 288 2556 703 3070 
Q 1119 3584 1766 3584 
Q 2128 3584 2408 3439 
Q 2688 3294 2919 2988 
z
M 2181 722 
Q 2541 722 2730 984 
Q 2919 1247 2919 1747 
Q 2919 2247 2730 2509 
Q 2541 2772 2181 2772 
Q 1825 2772 1636 2509 
Q 1447 2247 1447 1747 
Q 1447 1247 1636 984 
Q 1825 722 2181 722 
z
" transform="scale(0.015625)"/>
       <path id="DejaVuSans-Bold-6c" d="M 538 4863 
L 1656 4863 
L 1656 0 
L 538 0 
L 538 4863 
z
" transform="scale(0.015625)"/>
       <path id="DejaVuSans-Bold-25" d="M 4959 1925 
Q 4738 1925 4616 1733 
Q 4494 1541 4494 1184 
Q 4494 825 4614 633 
Q 4734 441 4959 441 
Q 5184 441 5303 633 
Q 5422 825 5422 1184 
Q 5422 1541 5301 1733 
Q 5181 1925 4959 1925 
z
M 4959 2450 
Q 5541 2450 5875 2112 
Q 6209 1775 6209 1184 
Q 6209 594 5875 251 
Q 5541 -91 4959 -91 
Q 4378 -91 4042 251 
Q 3706 594 3706 1184 
Q 3706 1772 4042 2111 
Q 4378 2450 4959 2450 
z
M 2094 -91 
L 1403 -91 
L 4319 4750 
L 5013 4750 
L 2094 -91 
z
M 1453 4750 
Q 2034 4750 2367 4411 
Q 2700 4072 2700 3481 
Q 2700 2891 2367 2550 
Q 2034 2209 1453 2209 
Q 872 2209 539 2550 
Q 206 2891 206 3481 
Q 206 4072 539 4411 
Q 872 4750 1453 4750 
z
M 1453 4225 
Q 1228 4225 1106 4031 
Q 984 3838 984 3481 
Q 984 3122 1106 2926 
Q 1228 2731 1453 2731 
Q 1678 2731 1798 2926 
Q 1919 3122 1919 3481 
Q 1919 3838 1797 4031 
Q 1675 4225 1453 4225 
z
" transform="scale(0.015625)"/>
      </defs>
      <use xlink:href="#DejaVuSans-Bold-52"/>
      <use xlink:href="#DejaVuSans-Bold-65" x="77.001953"/>
      <use xlink:href="#DejaVuSans-Bold-73" x="144.824219"/>
      <use xlink:href="#DejaVuSans-Bold-69" x="204.345703"/>
      <use xlink:href="#DejaVuSans-Bold-64" x="238.623047"/>
      <use xlink:href="#DejaVuSans-Bold-75" x="310.205078"/>
      <use xlink:href="#DejaVuSans-Bold-61" x="381.396484"/>
      <use xlink:href="#DejaVuSans-Bold-6c" x="448.876953"/>
      <use xlink:href="#DejaVuSans-Bold-73" x="483.154297"/>
      <use xlink:href="#DejaVuSans-Bold-20" x="542.675781"/>
      <use xlink:href="#DejaVuSans-Bold-28" x="577.490234"/>
      <use xlink:href="#DejaVuSans-Bold-25" x="623.193359"/>
      <use xlink:href="#DejaVuSans-Bold-29" x="723.388672"/>
     </g>
    </g>
   </g>
   <g id="line2d_43">
    <path d="M -1 152.163886 
L 1.091904 144.575267 
L 9.02407 239.488691 
L 17.006578 194.111919 
L 18.675591 234.097166 
L 20.111774 229.707746 
L 21.797245 206.617601 
L 23.341372 229.706921 
L 24.91793 245.023158 
L 26.505138 190.565338 
L 28.105415 267.415049 
L 29.68391 276.397854 
L 31.23675 219.351063 
L 32.673418 205.25666 
L 34.355016 209.17679 
L 35.479228 281.5725 
M 36.572953 281.5725 
L 37.602039 231.407096 
L 39.179082 264.349418 
L 40.389325 281.5725 
M 42.982376 281.5725 
L 44.032675 266.085192 
L 44.504027 281.5725 
M 48.040522 281.5725 
L 48.67619 251.105681 
L 50.247424 208.392442 
L 51.864159 189.967023 
L 53.473633 221.739593 
L 55.05116 235.820976 
L 56.602547 222.246951 
L 58.206697 181.945024 
L 59.86264 153.283482 
L 61.449364 154.219628 
L 62.945086 185.299715 
L 64.733659 206.51212 
L 66.15871 196.406574 
L 67.821914 154.413353 
L 69.283268 146.969138 
L 70.918881 156.009939 
L 74.084099 194.833603 
L 75.58563 173.738715 
L 77.32241 175.323383 
L 78.888803 177.567519 
L 80.558784 165.94763 
L 82.047245 163.405743 
L 83.575883 163.500859 
L 85.201815 154.153354 
L 86.850013 159.258971 
L 88.384943 158.504178 
L 89.982316 161.598775 
L 91.464 131.282957 
L 93.133497 134.261975 
L 94.628735 159.659635 
L 96.2992 171.009177 
L 97.805086 153.635751 
L 99.481844 131.191581 
L 101.066147 137.751553 
L 102.626248 184.980123 
L 104.276867 176.799746 
L 105.805988 159.67543 
L 107.458543 163.8431 
L 109.050592 166.376135 
L 110.561803 155.388849 
L 112.068658 177.07858 
L 113.722665 175.243274 
L 115.261468 168.37807 
L 116.959523 152.502987 
L 118.456697 152.488429 
L 120.062783 154.836212 
L 121.906539 167.321785 
L 123.218805 157.049932 
L 124.746474 156.092197 
L 126.504552 149.169153 
L 127.962518 144.900651 
L 129.365302 155.790535 
L 131.149519 177.829703 
L 132.675736 186.477813 
L 134.475443 173.507592 
L 135.896137 166.402204 
L 137.551596 150.704725 
L 139.2148 155.318469 
L 140.682447 155.246924 
L 142.311767 164.930475 
L 143.81717 177.798398 
L 145.526359 176.80636 
L 148.606384 162.092553 
L 150.356234 151.907974 
L 151.844695 156.927165 
L 153.411088 157.247323 
L 154.899065 170.544354 
L 156.573403 171.554414 
L 158.159642 180.463421 
L 159.895454 181.071757 
L 161.300658 181.819323 
L 162.957569 182.45723 
L 164.482335 174.756839 
L 166.10391 170.196145 
L 167.604956 170.516306 
L 169.232341 179.299249 
L 170.900385 181.32166 
L 172.367548 191.410925 
L 175.670237 197.640355 
L 179.623977 208.236401 
L 183.523019 196.695662 
L 187.550335 195.989979 
L 191.561677 190.084361 
L 195.411346 197.333313 
L 199.328782 201.956714 
L 203.383689 199.885575 
L 207.332104 213.508425 
L 211.147889 207.406515 
L 215.296702 208.364776 
L 219.258671 205.779637 
L 223.310189 206.196199 
L 227.044169 208.456033 
L 231.139252 206.742712 
L 234.968107 203.989064 
L 238.956698 204.134116 
L 242.897369 203.327701 
L 247.023431 202.289136 
L 250.889558 202.986577 
L 258.913694 210.130423 
L 262.820481 207.249174 
L 266.760183 206.957919 
L 270.749259 203.750372 
L 274.734946 202.051005 
L 278.628664 202.26096 
L 282.808456 203.485842 
L 286.608751 203.876438 
L 290.606056 200.334023 
L 294.583999 203.136279 
L 298.655363 207.423274 
L 302.489542 207.154651 
L 306.460224 205.818811 
L 310.32877 203.626 
L 314.539542 202.666171 
L 318.334029 202.878654 
L 322.206932 202.722986 
L 326.226503 203.355643 
L 330.28383 197.767334 
L 334.164478 201.906963 
L 338.238263 197.688813 
L 342.054048 200.18476 
L 346.124928 199.204391 
L 350.105775 200.341389 
L 353.983035 198.479305 
L 358.046655 201.068288 
L 361.951505 200.291182 
L 365.898952 204.412577 
L 369.987259 207.314854 
L 373.852901 200.327733 
L 377.720964 205.382452 
L 385.571809 206.111851 
L 389.804364 201.615338 
L 389.992813 201.800878 
L 389.992813 201.800878 
" clip-path="url(#pe120d39f18)" style="fill: none; stroke: #ff8c00; stroke-opacity: 0.8; stroke-width: 2; stroke-linecap: square"/>
   </g>
   <g id="line2d_44">
    <path d="M -1 25.682049 
L 1.089 17.681705 
L 6.981947 -1 
M 17.727139 -1 
L 18.592334 17.445429 
L 20.132104 30.5376 
L 21.245238 -1 
M 21.958383 -1 
L 23.332175 73.429039 
L 24.836126 101.549095 
L 26.329385 -1 
M 26.792965 -1 
L 28.082181 74.275097 
L 29.729895 71.648572 
L 31.341306 75.692341 
L 32.872363 38.505101 
L 34.366633 78.322166 
L 35.999342 143.149482 
L 37.646572 158.576501 
L 39.12874 132.453374 
L 40.831637 131.503742 
L 42.376248 100.459497 
L 43.951354 127.33975 
L 45.661511 172.694447 
L 47.200798 179.708456 
L 48.743957 158.792231 
L 50.27211 161.289454 
L 51.869967 178.312949 
L 53.500256 176.481448 
L 55.065681 186.653309 
L 56.528487 162.246235 
L 58.290922 164.580509 
L 59.704355 164.856258 
L 61.571829 169.705587 
L 62.899585 175.181301 
L 64.487761 173.270323 
L 66.217764 174.258321 
L 67.760923 154.862103 
L 69.26439 150.97864 
L 70.908232 154.929688 
L 72.464944 157.900581 
L 74.090876 161.816218 
L 75.705675 160.481497 
L 77.284654 166.135999 
L 78.851047 174.412986 
L 82.062251 160.973434 
L 83.677534 159.295255 
L 85.197458 164.65466 
L 86.827746 160.009631 
L 88.276999 144.963194 
L 90.017652 138.627456 
L 91.482394 131.152012 
L 93.176578 140.487218 
L 94.786052 147.420025 
L 96.328727 148.784875 
L 97.759102 155.607126 
L 99.342921 153.000874 
L 101.102935 149.032522 
L 102.687723 152.0295 
L 104.270574 154.559298 
L 105.729024 158.858486 
L 107.399489 161.555259 
L 108.981856 169.879484 
L 110.53518 165.739507 
L 112.131585 171.445419 
L 113.728474 166.212014 
L 115.370864 165.672524 
L 116.980822 158.104508 
L 118.402 160.41892 
L 120.053102 159.449549 
L 121.684359 159.918496 
L 123.167495 156.824115 
L 124.695165 160.588633 
L 126.488579 162.846598 
L 127.95671 159.780151 
L 129.512938 164.825498 
L 131.202765 165.015625 
L 132.840314 168.358241 
L 134.476895 170.969186 
L 135.943574 169.536536 
L 137.491089 165.37842 
L 139.16349 168.879149 
L 142.356784 164.853879 
L 143.959966 172.972311 
L 145.389372 169.193622 
L 147.060321 177.311777 
L 148.591379 173.680238 
L 150.124857 166.703818 
L 151.790481 167.424281 
L 153.528229 161.276009 
L 154.899065 174.5412 
L 156.492566 165.150219 
L 158.036209 170.789361 
L 159.754111 167.595465 
L 161.384399 172.575172 
L 162.968219 180.45806 
L 164.541873 175.781943 
L 166.184263 180.174731 
L 167.682405 178.404704 
L 169.396918 186.325141 
L 170.896513 177.36107 
L 172.308009 188.489331 
L 174.037045 192.068118 
L 175.592305 194.194035 
L 179.564923 200.082636 
L 183.603856 197.425435 
L 187.416252 203.842325 
L 191.467771 198.270707 
L 195.366329 202.680475 
L 199.392193 203.070247 
L 203.31931 202.983754 
L 207.283699 206.059479 
L 211.351191 205.903373 
L 215.281696 203.11954 
L 219.17977 203.677956 
L 223.204666 203.074775 
L 227.052882 210.218545 
L 231.047766 204.438538 
L 235.033938 210.659444 
L 238.960087 208.440437 
L 243.168922 207.647641 
L 246.975026 210.619397 
L 250.925862 210.55783 
L 255.016104 211.128686 
L 258.891428 211.33886 
L 262.84662 210.962127 
L 266.684671 212.284398 
L 270.744903 211.153413 
L 278.665936 212.41964 
L 282.705353 211.937271 
L 286.544372 218.650926 
L 290.523767 214.896993 
L 294.539466 213.555551 
L 298.539675 213.734284 
L 302.638146 214.815512 
L 306.496528 215.338202 
L 310.449299 214.537856 
L 314.553096 214.400622 
L 318.443909 214.501084 
L 322.169176 215.892007 
L 326.33251 217.072116 
L 330.314809 213.375147 
L 334.213851 217.624645 
L 338.2523 212.439961 
L 341.993057 213.856893 
L 346.077491 213.13786 
L 350.134334 211.839942 
L 354.036281 209.907382 
L 357.856422 213.563094 
L 361.948601 209.750311 
L 365.962363 210.209066 
L 369.995004 214.308631 
L 373.842736 209.143704 
L 377.826971 212.191861 
L 381.683417 214.748935 
L 385.729126 211.481405 
L 389.992813 211.366054 
L 389.992813 211.366054 
" clip-path="url(#pe120d39f18)" style="fill: none; stroke: #008080; stroke-opacity: 0.8; stroke-width: 2; stroke-linecap: square"/>
   </g>
   <g id="line2d_45">
    <path d="M 48.702813 188.865 
L 381.792813 188.865 
" clip-path="url(#pe120d39f18)" style="fill: none; stroke: #000000; stroke-opacity: 0.5; stroke-width: 1.5; stroke-linecap: square"/>
   </g>
   <g id="patch_10">
    <path d="M 48.702813 244.5 
L 48.702813 133.23 
" style="fill: none; stroke: #000000; stroke-width: 0.8; stroke-linejoin: miter; stroke-linecap: square"/>
   </g>
   <g id="patch_11">
    <path d="M 381.792813 244.5 
L 381.792813 133.23 
" style="fill: none; stroke: #000000; stroke-width: 0.8; stroke-linejoin: miter; stroke-linecap: square"/>
   </g>
   <g id="patch_12">
    <path d="M 48.702812 244.5 
L 381.792812 244.5 
" style="fill: none; stroke: #000000; stroke-width: 0.8; stroke-linejoin: miter; stroke-linecap: square"/>
   </g>
   <g id="patch_13">
    <path d="M 48.702812 133.23 
L 381.792812 133.23 
" style="fill: none; stroke: #000000; stroke-width: 0.8; stroke-linejoin: miter; stroke-linecap: square"/>
   </g>
   <g id="text_21">
    <g id="patch_14">
     <path d="M 163.812812 142.166906 
L 266.682812 142.166906 
L 266.682812 129.856594 
L 163.812812 129.856594 
z
" style="fill: #ffffff; stroke: #808080; stroke-linejoin: miter"/>
    </g>
    <!-- CuI - Si RMSE: 4.4% -->
    <g transform="translate(165.612812 138.495187) scale(0.09 -0.09)">
     <defs>
      <path id="DejaVuSans-Bold-2d" d="M 347 2297 
L 2309 2297 
L 2309 1388 
L 347 1388 
L 347 2297 
z
" transform="scale(0.015625)"/>
      <path id="DejaVuSans-Bold-4d" d="M 588 4666 
L 2119 4666 
L 3181 2169 
L 4250 4666 
L 5778 4666 
L 5778 0 
L 4641 0 
L 4641 3413 
L 3566 897 
L 2803 897 
L 1728 3413 
L 1728 0 
L 588 0 
L 588 4666 
z
" transform="scale(0.015625)"/>
     </defs>
     <use xlink:href="#DejaVuSans-Bold-43"/>
     <use xlink:href="#DejaVuSans-Bold-75" x="73.388672"/>
     <use xlink:href="#DejaVuSans-Bold-49" x="144.580078"/>
     <use xlink:href="#DejaVuSans-Bold-20" x="181.787109"/>
     <use xlink:href="#DejaVuSans-Bold-2d" x="216.601562"/>
     <use xlink:href="#DejaVuSans-Bold-20" x="258.105469"/>
     <use xlink:href="#DejaVuSans-Bold-53" x="292.919922"/>
     <use xlink:href="#DejaVuSans-Bold-69" x="364.941406"/>
     <use xlink:href="#DejaVuSans-Bold-20" x="399.21875"/>
     <use xlink:href="#DejaVuSans-Bold-52" x="434.033203"/>
     <use xlink:href="#DejaVuSans-Bold-4d" x="511.035156"/>
     <use xlink:href="#DejaVuSans-Bold-53" x="610.546875"/>
     <use xlink:href="#DejaVuSans-Bold-45" x="682.568359"/>
     <use xlink:href="#DejaVuSans-Bold-3a" x="750.878906"/>
     <use xlink:href="#DejaVuSans-Bold-20" x="790.869141"/>
     <use xlink:href="#DejaVuSans-Bold-34" x="825.683594"/>
     <use xlink:href="#DejaVuSans-Bold-2e" x="895.263672"/>
     <use xlink:href="#DejaVuSans-Bold-34" x="933.251953"/>
     <use xlink:href="#DejaVuSans-Bold-25" x="1002.832031"/>
    </g>
   </g>
   <g id="legend_2">
    <g id="patch_15">
     <path d="M 208.971719 178.557 
L 377.292813 178.557 
L 377.292813 148.857 
L 208.971719 148.857 
z
" style="fill: #ffffff; stroke: #cccccc; stroke-linejoin: miter"/>
    </g>
    <g id="line2d_46">
     <path d="M 212.571719 156.184969 
L 219.321719 156.184969 
L 226.071719 156.184969 
" style="fill: none; stroke: #ff8c00; stroke-opacity: 0.8; stroke-width: 2; stroke-linecap: square"/>
    </g>
    <g id="text_22">
     <!-- CuPc | Si (Clustered vs Exp) -->
     <g transform="translate(233.271719 159.334969) scale(0.09 -0.09)">
      <defs>
       <path id="DejaVuSans-Bold-50" d="M 588 4666 
L 2584 4666 
Q 3475 4666 3951 4270 
Q 4428 3875 4428 3144 
Q 4428 2409 3951 2014 
Q 3475 1619 2584 1619 
L 1791 1619 
L 1791 0 
L 588 0 
L 588 4666 
z
M 1791 3794 
L 1791 2491 
L 2456 2491 
Q 2806 2491 2997 2661 
Q 3188 2831 3188 3144 
Q 3188 3456 2997 3625 
Q 2806 3794 2456 3794 
L 1791 3794 
z
" transform="scale(0.015625)"/>
       <path id="DejaVuSans-Bold-63" d="M 3366 3391 
L 3366 2478 
Q 3138 2634 2908 2709 
Q 2678 2784 2431 2784 
Q 1963 2784 1702 2511 
Q 1441 2238 1441 1747 
Q 1441 1256 1702 982 
Q 1963 709 2431 709 
Q 2694 709 2930 787 
Q 3166 866 3366 1019 
L 3366 103 
Q 3103 6 2833 -42 
Q 2563 -91 2291 -91 
Q 1344 -91 809 395 
Q 275 881 275 1747 
Q 275 2613 809 3098 
Q 1344 3584 2291 3584 
Q 2566 3584 2833 3536 
Q 3100 3488 3366 3391 
z
" transform="scale(0.015625)"/>
       <path id="DejaVuSans-Bold-7c" d="M 1522 4891 
L 1522 -1509 
L 813 -1509 
L 813 4891 
L 1522 4891 
z
" transform="scale(0.015625)"/>
       <path id="DejaVuSans-Bold-76" d="M 97 3500 
L 1216 3500 
L 2088 1081 
L 2956 3500 
L 4078 3500 
L 2700 0 
L 1472 0 
L 97 3500 
z
" transform="scale(0.015625)"/>
       <path id="DejaVuSans-Bold-78" d="M 1422 1791 
L 159 3500 
L 1344 3500 
L 2059 2463 
L 2784 3500 
L 3969 3500 
L 2706 1797 
L 4031 0 
L 2847 0 
L 2059 1106 
L 1281 0 
L 97 0 
L 1422 1791 
z
" transform="scale(0.015625)"/>
       <path id="DejaVuSans-Bold-70" d="M 1656 506 
L 1656 -1331 
L 538 -1331 
L 538 3500 
L 1656 3500 
L 1656 2988 
Q 1888 3294 2169 3439 
Q 2450 3584 2816 3584 
Q 3463 3584 3878 3070 
Q 4294 2556 4294 1747 
Q 4294 938 3878 423 
Q 3463 -91 2816 -91 
Q 2450 -91 2169 54 
Q 1888 200 1656 506 
z
M 2400 2772 
Q 2041 2772 1848 2508 
Q 1656 2244 1656 1747 
Q 1656 1250 1848 986 
Q 2041 722 2400 722 
Q 2759 722 2948 984 
Q 3138 1247 3138 1747 
Q 3138 2247 2948 2509 
Q 2759 2772 2400 2772 
z
" transform="scale(0.015625)"/>
      </defs>
      <use xlink:href="#DejaVuSans-Bold-43"/>
      <use xlink:href="#DejaVuSans-Bold-75" x="73.388672"/>
      <use xlink:href="#DejaVuSans-Bold-50" x="144.580078"/>
      <use xlink:href="#DejaVuSans-Bold-63" x="217.871094"/>
      <use xlink:href="#DejaVuSans-Bold-20" x="277.148438"/>
      <use xlink:href="#DejaVuSans-Bold-7c" x="311.962891"/>
      <use xlink:href="#DejaVuSans-Bold-20" x="348.486328"/>
      <use xlink:href="#DejaVuSans-Bold-53" x="383.300781"/>
      <use xlink:href="#DejaVuSans-Bold-69" x="455.322266"/>
      <use xlink:href="#DejaVuSans-Bold-20" x="489.599609"/>
      <use xlink:href="#DejaVuSans-Bold-28" x="524.414062"/>
      <use xlink:href="#DejaVuSans-Bold-43" x="570.117188"/>
      <use xlink:href="#DejaVuSans-Bold-6c" x="643.505859"/>
      <use xlink:href="#DejaVuSans-Bold-75" x="677.783203"/>
      <use xlink:href="#DejaVuSans-Bold-73" x="748.974609"/>
      <use xlink:href="#DejaVuSans-Bold-74" x="808.496094"/>
      <use xlink:href="#DejaVuSans-Bold-65" x="856.298828"/>
      <use xlink:href="#DejaVuSans-Bold-72" x="924.121094"/>
      <use xlink:href="#DejaVuSans-Bold-65" x="973.4375"/>
      <use xlink:href="#DejaVuSans-Bold-64" x="1041.259766"/>
      <use xlink:href="#DejaVuSans-Bold-20" x="1112.841797"/>
      <use xlink:href="#DejaVuSans-Bold-76" x="1147.65625"/>
      <use xlink:href="#DejaVuSans-Bold-73" x="1212.841797"/>
      <use xlink:href="#DejaVuSans-Bold-20" x="1272.363281"/>
      <use xlink:href="#DejaVuSans-Bold-45" x="1307.177734"/>
      <use xlink:href="#DejaVuSans-Bold-78" x="1375.488281"/>
      <use xlink:href="#DejaVuSans-Bold-70" x="1439.990234"/>
      <use xlink:href="#DejaVuSans-Bold-29" x="1511.572266"/>
     </g>
    </g>
    <g id="line2d_47">
     <path d="M 212.571719 169.684969 
L 219.321719 169.684969 
L 226.071719 169.684969 
" style="fill: none; stroke: #008080; stroke-opacity: 0.8; stroke-width: 2; stroke-linecap: square"/>
    </g>
    <g id="text_23">
     <!-- CuPc |CuI vs Si (Exp vs Exp) -->
     <g transform="translate(233.271719 172.834969) scale(0.09 -0.09)">
      <use xlink:href="#DejaVuSans-Bold-43"/>
      <use xlink:href="#DejaVuSans-Bold-75" x="73.388672"/>
      <use xlink:href="#DejaVuSans-Bold-50" x="144.580078"/>
      <use xlink:href="#DejaVuSans-Bold-63" x="217.871094"/>
      <use xlink:href="#DejaVuSans-Bold-20" x="277.148438"/>
      <use xlink:href="#DejaVuSans-Bold-7c" x="311.962891"/>
      <use xlink:href="#DejaVuSans-Bold-43" x="348.486328"/>
      <use xlink:href="#DejaVuSans-Bold-75" x="421.875"/>
      <use xlink:href="#DejaVuSans-Bold-49" x="493.066406"/>
      <use xlink:href="#DejaVuSans-Bold-20" x="530.273438"/>
      <use xlink:href="#DejaVuSans-Bold-76" x="565.087891"/>
      <use xlink:href="#DejaVuSans-Bold-73" x="630.273438"/>
      <use xlink:href="#DejaVuSans-Bold-20" x="689.794922"/>
      <use xlink:href="#DejaVuSans-Bold-53" x="724.609375"/>
      <use xlink:href="#DejaVuSans-Bold-69" x="796.630859"/>
      <use xlink:href="#DejaVuSans-Bold-20" x="830.908203"/>
      <use xlink:href="#DejaVuSans-Bold-28" x="865.722656"/>
      <use xlink:href="#DejaVuSans-Bold-45" x="911.425781"/>
      <use xlink:href="#DejaVuSans-Bold-78" x="979.736328"/>
      <use xlink:href="#DejaVuSans-Bold-70" x="1044.238281"/>
      <use xlink:href="#DejaVuSans-Bold-20" x="1115.820312"/>
      <use xlink:href="#DejaVuSans-Bold-76" x="1150.634766"/>
      <use xlink:href="#DejaVuSans-Bold-73" x="1215.820312"/>
      <use xlink:href="#DejaVuSans-Bold-20" x="1275.341797"/>
      <use xlink:href="#DejaVuSans-Bold-45" x="1310.15625"/>
      <use xlink:href="#DejaVuSans-Bold-78" x="1378.466797"/>
      <use xlink:href="#DejaVuSans-Bold-70" x="1442.96875"/>
      <use xlink:href="#DejaVuSans-Bold-29" x="1514.550781"/>
     </g>
    </g>
   </g>
  </g>
 </g>
 <defs>
  <clipPath id="p0f54367511">
   <rect x="48.702813" y="7.2" width="333.09" height="111.27"/>
  </clipPath>
  <clipPath id="pe120d39f18">
   <rect x="48.702813" y="133.23" width="333.09" height="111.27"/>
  </clipPath>
 </defs>
</svg>
